<svg xmlns="http://www.w3.org/2000/svg" viewBox="0 0 96 96" fill="none">
  <circle cx="34" cy="32" r="10" stroke="#6f9875" stroke-width="5"/>
  <circle cx="62" cy="32" r="10" stroke="#9d6754" stroke-width="5"/>
  <path d="M20 66c4-12 12-18 24-18" stroke="#6f9875" stroke-width="5" stroke-linecap="round"/>
  <path d="M76 66c-4-12-12-18-24-18" stroke="#9d6754" stroke-width="5" stroke-linecap="round"/>
  <path d="M48 67c-8-7-13-12-13-18 0-4 3-7 7-7 3 0 5 1 6 4 1-3 3-4 6-4 4 0 7 3 7 7 0 6-5 11-13 18z" fill="#c58b55"/>
</svg>
